<svg width="128" height="128" viewBox="0 0 128 128" fill="none" xmlns="http://www.w3.org/2000/svg">
<rect width="128" height="128" fill="#E4EFF4"/>
<path d="M30.6667 71.0737C29.1939 71.0737 28 69.8904 28 68.4307V38.7601C28 36.4055 30.8724 35.2263 32.5523 36.8913L55.8994 60.031C57.1392 61.2598 56.8656 63.3198 55.3471 64.1887L43.9339 70.7196C43.5285 70.9515 43.0687 71.0737 42.6006 71.0737H30.6667Z" fill="#2A3247"/>
<path d="M53.3333 74.8056C52.5083 75.2777 52 76.1503 52 77.0945V83.9827C52 85.0923 52.6993 86.0838 53.7507 86.4649L87.8502 98.8257C90.5324 99.7979 92.6712 96.4761 90.6518 94.4746L65.8577 69.9009C65.0043 69.055 63.684 68.8827 62.6388 69.4808L53.3333 74.8056Z" fill="#2A3247"/>
<path d="M74.8353 62.5018C73.3168 63.3707 73.0431 65.4307 74.283 66.6595L95.4477 87.6362C97.1276 89.3012 100 88.122 100 85.7674V58.2993C100 56.8396 98.8061 55.6563 97.3333 55.6563H87.5128C87.0447 55.6563 86.5848 55.7784 86.1794 56.0104L74.8353 62.5018Z" fill="#2A3247"/>
<path d="M74.6667 53.1336C75.4917 52.6615 76 51.789 76 50.8447V42.7472C76 41.6376 75.3007 40.6462 74.2493 40.2651L43.6534 29.1743C40.9713 28.2021 38.8324 31.5238 40.8518 33.5253L64.3246 56.7896C65.178 57.6355 66.4983 57.8077 67.5436 57.2096L74.6667 53.1336Z" fill="#2A3247"/>
</svg>
